<svg width="700" height="160" viewBox="0 0 700 160" fill="none" xmlns="http://www.w3.org/2000/svg">
<path d="M203.549 127.746C197.874 127.746 192.734 126.841 188.128 125.031C183.604 123.139 179.697 120.343 176.407 116.642C173.2 112.941 170.732 108.376 169.005 102.948C167.278 97.4372 166.414 91.0625 166.414 83.8247C166.414 76.5868 167.278 70.1714 169.005 64.5784C170.732 58.9032 173.2 54.1739 176.407 50.3904C179.697 46.5247 183.604 43.6049 188.128 41.6309C192.734 39.6569 197.874 38.67 203.549 38.67C211.281 38.67 217.696 40.315 222.796 43.6049C227.895 46.8948 231.967 51.8709 235.01 58.5331L221.069 65.9355C219.835 62.0698 217.819 58.9854 215.023 56.6825C212.227 54.2972 208.402 53.1047 203.549 53.1047C197.463 53.1047 192.611 55.1608 188.991 59.2733C185.455 63.3858 183.686 69.1432 183.686 76.5456V90.1167C183.686 97.601 185.455 103.359 188.991 107.389C192.611 111.337 197.463 113.311 203.549 113.311C208.402 113.311 212.35 111.995 215.393 109.363C218.519 106.731 220.78 103.482 222.179 99.6165L235.38 107.389C232.254 113.804 228.101 118.821 222.919 122.441C217.737 125.977 211.281 127.746 203.549 127.746ZM273.823 127.746C269.217 127.746 265.064 126.964 261.362 125.402C257.743 123.839 254.618 121.577 251.986 118.616C249.437 115.655 247.463 112.119 246.064 108.006C244.666 103.811 243.967 99.123 243.967 93.9413C243.967 88.7596 244.666 84.1126 246.064 80.0001C247.463 75.8876 249.437 72.3921 251.986 69.5133C254.618 66.5524 257.743 64.2905 261.362 62.7278C265.064 61.1651 269.217 60.3837 273.823 60.3837C278.429 60.3837 282.583 61.1651 286.284 62.7278C289.985 64.2905 293.111 66.5524 295.66 69.5133C298.293 72.3921 300.307 75.8876 301.706 80.0001C303.104 84.1126 303.803 88.7596 303.803 93.9413C303.803 99.123 303.104 103.811 301.706 108.006C300.307 112.119 298.293 115.655 295.66 118.616C293.111 121.577 289.985 123.839 286.284 125.402C282.583 126.964 278.429 127.746 273.823 127.746ZM273.823 115.038C278.018 115.038 281.308 113.763 283.693 111.214C286.079 108.664 287.271 104.922 287.271 99.9866V88.0194C287.271 83.1666 286.079 79.4654 283.693 76.9157C281.308 74.3661 278.018 73.0912 273.823 73.0912C269.71 73.0912 266.462 74.3661 264.077 76.9157C261.691 79.4654 260.499 83.1666 260.499 88.0194V99.9866C260.499 104.922 261.691 108.664 264.077 111.214C266.462 113.763 269.71 115.038 273.823 115.038ZM357.776 115.532H357.159C356.007 119.233 353.828 122.194 350.62 124.415C347.413 126.635 343.67 127.746 339.393 127.746C331.251 127.746 325 124.826 320.641 118.986C316.364 113.146 314.225 104.798 314.225 93.9413C314.225 83.1666 316.364 74.9006 320.641 69.1432C325 63.3035 331.251 60.3837 339.393 60.3837C343.67 60.3837 347.413 61.494 350.62 63.7148C353.828 65.8533 356.007 68.7731 357.159 72.4743H357.776V34.9688H373.568V126.265H357.776V115.532ZM344.452 114.668C348.235 114.668 351.402 113.763 353.951 111.954C356.501 110.145 357.776 107.554 357.776 104.181V83.7013C357.776 80.5758 356.501 78.0673 353.951 76.1755C351.402 74.2837 348.235 73.3379 344.452 73.3379C340.339 73.3379 337.008 74.7362 334.458 77.5326C331.991 80.2468 330.757 83.9069 330.757 88.5128V99.6165C330.757 104.223 331.991 107.882 334.458 110.597C337.008 113.311 340.339 114.668 344.452 114.668ZM417.811 127.746C413.041 127.746 408.763 126.964 404.98 125.402C401.279 123.756 398.112 121.495 395.48 118.616C392.931 115.655 390.957 112.119 389.558 108.006C388.16 103.811 387.461 99.123 387.461 93.9413C387.461 88.8418 388.119 84.2359 389.435 80.1234C390.833 76.011 392.807 72.5154 395.357 69.6367C397.906 66.6757 401.032 64.4139 404.733 62.8512C408.434 61.2061 412.629 60.3837 417.317 60.3837C422.334 60.3837 426.694 61.2473 430.395 62.9745C434.096 64.7018 437.139 67.0459 439.524 70.0068C441.91 72.9678 443.678 76.4222 444.829 80.3702C446.063 84.2359 446.68 88.3895 446.68 92.8309V98.0126H403.869V99.6165C403.869 104.305 405.185 108.088 407.817 110.967C410.45 113.763 414.356 115.162 419.538 115.162C423.486 115.162 426.694 114.339 429.161 112.694C431.71 111.049 433.973 108.951 435.947 106.402L444.459 115.902C441.827 119.603 438.209 122.522 433.603 124.661C429.079 126.717 423.815 127.746 417.811 127.746ZM417.564 72.2275C413.369 72.2275 410.038 73.6258 407.571 76.4222C405.103 79.2187 403.869 82.8377 403.869 87.2791V88.2661H430.271V87.1557C430.271 82.7143 429.161 79.1365 426.94 76.4222C424.802 73.6258 421.677 72.2275 417.564 72.2275ZM461.561 126.265V40.1504H477.846V111.83H511.774V126.265H461.561ZM572.648 126.265C569.194 126.265 566.438 125.278 564.382 123.304C562.408 121.248 561.175 118.534 560.681 115.162H559.941C558.872 119.356 556.692 122.522 553.402 124.661C550.112 126.717 546.041 127.746 541.188 127.746C534.608 127.746 529.549 126.018 526.013 122.564C522.477 119.109 520.708 114.503 520.708 108.746C520.708 102.084 523.094 97.149 527.864 93.9413C532.634 90.6513 539.419 89.0063 548.22 89.0063H559.201V84.3181C559.201 80.6992 558.255 77.9027 556.363 75.9287C554.471 73.9548 551.428 72.9678 547.233 72.9678C543.532 72.9678 540.53 73.7902 538.227 75.4353C536.006 76.998 534.114 78.8897 532.552 81.1104L523.176 72.721C525.561 69.0198 528.727 66.0589 532.675 63.8382C536.623 61.5352 541.846 60.3837 548.344 60.3837C557.062 60.3837 563.683 62.3577 568.207 66.3056C572.73 70.2536 574.992 75.9288 574.992 83.3312V113.681H581.408V126.265H572.648ZM546.493 116.272C550.029 116.272 553.032 115.49 555.499 113.928C557.967 112.365 559.201 110.062 559.201 107.019V98.5061H549.084C540.859 98.5061 536.747 101.138 536.747 106.402V108.499C536.747 111.132 537.569 113.106 539.214 114.421C540.941 115.655 543.367 116.272 546.493 116.272ZM594.188 34.9688H609.98V72.4743H610.474C611.626 68.7731 613.805 65.8533 617.013 63.7148C620.22 61.494 623.963 60.3837 628.24 60.3837C636.464 60.3837 642.716 63.3035 646.992 69.1432C651.352 74.9006 653.531 83.1666 653.531 93.9413C653.531 104.798 651.352 113.146 646.992 118.986C642.716 124.826 636.464 127.746 628.24 127.746C623.963 127.746 620.22 126.635 617.013 124.415C613.887 122.194 611.708 119.233 610.474 115.532H609.98V126.265H594.188V34.9688ZM623.181 114.668C627.294 114.668 630.625 113.311 633.174 110.597C635.724 107.882 636.999 104.223 636.999 99.6165V88.5128C636.999 83.9069 635.724 80.2468 633.174 77.5326C630.625 74.7362 627.294 73.3379 623.181 73.3379C619.398 73.3379 616.231 74.2837 613.681 76.1755C611.214 78.0673 609.98 80.5758 609.98 83.7013V104.181C609.98 107.554 611.214 110.145 613.681 111.954C616.231 113.763 619.398 114.668 623.181 114.668Z" fill="#0E0E10"/>
<path d="M675.491 127.622C672.119 127.622 669.611 126.8 667.965 125.155C666.403 123.427 665.621 121.248 665.621 118.616V116.395C665.621 113.763 666.403 111.584 667.965 109.856C669.611 108.129 672.119 107.266 675.491 107.266C678.946 107.266 681.454 108.129 683.017 109.856C684.579 111.584 685.361 113.763 685.361 116.395V118.616C685.361 121.248 684.579 123.427 683.017 125.155C681.454 126.8 678.946 127.622 675.491 127.622Z" fill="#0E0E10"/>
<mask id="mask0_299214_2" style="mask-type:luminance" maskUnits="userSpaceOnUse" x="0" y="7" width="145" height="146">
<path d="M144.578 7.71085H0V152.289H144.578V7.71085Z" fill="white"/>
</mask>
<g mask="url(#mask0_299214_2)">
<path d="M118.744 126.456C128.477 116.723 115.569 88.0337 89.9121 62.3769C64.2552 36.7201 35.5661 23.8113 25.8331 33.5442C16.1002 43.2772 29.009 71.9663 54.6659 97.6231C80.3227 123.28 109.011 136.189 118.744 126.456Z" stroke="#0E0E10" stroke-width="6" stroke-linecap="round" stroke-linejoin="round"/>
<path d="M89.9121 97.6231C115.569 71.9663 128.477 43.2772 118.744 33.5442C109.011 23.8113 80.3227 36.7201 54.6659 62.377C29.009 88.0337 16.1002 116.723 25.8331 126.456C35.5661 136.189 64.2552 123.28 89.9121 97.6231Z" stroke="#0E0E10" stroke-width="6" stroke-linecap="round" stroke-linejoin="round"/>
<mask id="mask1_299214_2" style="mask-type:luminance" maskUnits="userSpaceOnUse" x="53" y="60" width="39" height="40">
<path d="M91.5652 60.7228H53.011V99.277H91.5652V60.7228Z" fill="white"/>
</mask>
<g mask="url(#mask1_299214_2)">
<path d="M66.2658 65.5421H78.314" stroke="#0E0E10" stroke-width="4" stroke-linecap="round" stroke-linejoin="round"/>
<path d="M75.9029 65.5421V75.6535L85.3683 91.4276C85.4781 91.6103 85.5374 91.8189 85.5402 92.0321C85.543 92.2452 85.4894 92.4553 85.3844 92.6408C85.2795 92.8265 85.1272 92.9809 84.9432 93.0885C84.7591 93.1959 84.5498 93.2527 84.3367 93.2529H60.2403C60.027 93.253 59.8174 93.1964 59.6332 93.0889C59.449 92.9816 59.2965 92.8272 59.1914 92.6415C59.0864 92.4559 59.0324 92.2458 59.0352 92.0325C59.038 91.8192 59.0973 91.6104 59.2071 91.4276L68.674 75.6535V65.5421" stroke="#0E0E10" stroke-width="4" stroke-linecap="round" stroke-linejoin="round"/>
<path d="M63.8007 83.7771C65.7932 83.4036 68.62 83.5647 72.2901 85.4217C77.1471 87.881 80.5356 87.366 82.4558 86.5738" stroke="#0E0E10" stroke-width="4" stroke-linecap="round" stroke-linejoin="round"/>
</g>
</g>
</svg>
